<?xml version="1.0" encoding="UTF-8" ?>
<svg version="1.1" width="64" height="64" xmlns="http://www.w3.org/2000/svg">
<rect x="10" y="16" width="1" height="1" fill="#000000" />
<rect x="11" y="16" width="1" height="1" fill="#000000" />
<rect x="12" y="16" width="1" height="1" fill="#000000" />
<rect x="13" y="16" width="1" height="1" fill="#000000" />
<rect x="14" y="16" width="1" height="1" fill="#000000" />
<rect x="15" y="16" width="1" height="1" fill="#000000" />
<rect x="16" y="16" width="1" height="1" fill="#000000" />
<rect x="17" y="16" width="1" height="1" fill="#000000" />
<rect x="18" y="16" width="1" height="1" fill="#000000" />
<rect x="19" y="16" width="1" height="1" fill="#000000" />
<rect x="20" y="16" width="1" height="1" fill="#000000" />
<rect x="21" y="16" width="1" height="1" fill="#000000" />
<rect x="22" y="16" width="1" height="1" fill="#000000" />
<rect x="23" y="16" width="1" height="1" fill="#000000" />
<rect x="24" y="16" width="1" height="1" fill="#000000" />
<rect x="25" y="16" width="1" height="1" fill="#000000" />
<rect x="26" y="16" width="1" height="1" fill="#000000" />
<rect x="27" y="16" width="1" height="1" fill="#000000" />
<rect x="28" y="16" width="1" height="1" fill="#000000" />
<rect x="29" y="16" width="1" height="1" fill="#000000" />
<rect x="30" y="16" width="1" height="1" fill="#000000" />
<rect x="31" y="16" width="1" height="1" fill="#000000" />
<rect x="32" y="16" width="1" height="1" fill="#000000" />
<rect x="33" y="16" width="1" height="1" fill="#000000" />
<rect x="34" y="16" width="1" height="1" fill="#000000" />
<rect x="35" y="16" width="1" height="1" fill="#000000" />
<rect x="36" y="16" width="1" height="1" fill="#000000" />
<rect x="37" y="16" width="1" height="1" fill="#000000" />
<rect x="38" y="16" width="1" height="1" fill="#000000" />
<rect x="39" y="16" width="1" height="1" fill="#000000" />
<rect x="40" y="16" width="1" height="1" fill="#000000" />
<rect x="41" y="16" width="1" height="1" fill="#000000" />
<rect x="42" y="16" width="1" height="1" fill="#000000" />
<rect x="43" y="16" width="1" height="1" fill="#000000" />
<rect x="44" y="16" width="1" height="1" fill="#000000" />
<rect x="45" y="16" width="1" height="1" fill="#000000" />
<rect x="46" y="16" width="1" height="1" fill="#000000" />
<rect x="47" y="16" width="1" height="1" fill="#000000" />
<rect x="48" y="16" width="1" height="1" fill="#000000" />
<rect x="49" y="16" width="1" height="1" fill="#000000" />
<rect x="50" y="16" width="1" height="1" fill="#000000" />
<rect x="51" y="16" width="1" height="1" fill="#000000" />
<rect x="52" y="16" width="1" height="1" fill="#000000" />
<rect x="53" y="16" width="1" height="1" fill="#000000" />
<rect x="9" y="17" width="1" height="1" fill="#000000" />
<rect x="54" y="17" width="1" height="1" fill="#000000" />
<rect x="8" y="18" width="1" height="1" fill="#000000" />
<rect x="55" y="18" width="1" height="1" fill="#000000" />
<rect x="7" y="19" width="1" height="1" fill="#000000" />
<rect x="56" y="19" width="1" height="1" fill="#000000" />
<rect x="6" y="20" width="1" height="1" fill="#000000" />
<rect x="7" y="20" width="1" height="1" fill="#000000" />
<rect x="8" y="20" width="1" height="1" fill="#000000" />
<rect x="9" y="20" width="1" height="1" fill="#000000" />
<rect x="10" y="20" width="1" height="1" fill="#000000" />
<rect x="11" y="20" width="1" height="1" fill="#000000" />
<rect x="12" y="20" width="1" height="1" fill="#000000" />
<rect x="13" y="20" width="1" height="1" fill="#000000" />
<rect x="14" y="20" width="1" height="1" fill="#000000" />
<rect x="15" y="20" width="1" height="1" fill="#000000" />
<rect x="16" y="20" width="1" height="1" fill="#000000" />
<rect x="17" y="20" width="1" height="1" fill="#000000" />
<rect x="18" y="20" width="1" height="1" fill="#000000" />
<rect x="19" y="20" width="1" height="1" fill="#000000" />
<rect x="20" y="20" width="1" height="1" fill="#000000" />
<rect x="21" y="20" width="1" height="1" fill="#000000" />
<rect x="22" y="20" width="1" height="1" fill="#000000" />
<rect x="23" y="20" width="1" height="1" fill="#000000" />
<rect x="24" y="20" width="1" height="1" fill="#000000" />
<rect x="25" y="20" width="1" height="1" fill="#000000" />
<rect x="26" y="20" width="1" height="1" fill="#000000" />
<rect x="27" y="20" width="1" height="1" fill="#000000" />
<rect x="28" y="20" width="1" height="1" fill="#000000" />
<rect x="29" y="20" width="1" height="1" fill="#000000" />
<rect x="30" y="20" width="1" height="1" fill="#000000" />
<rect x="31" y="20" width="1" height="1" fill="#000000" />
<rect x="32" y="20" width="1" height="1" fill="#000000" />
<rect x="33" y="20" width="1" height="1" fill="#000000" />
<rect x="34" y="20" width="1" height="1" fill="#000000" />
<rect x="35" y="20" width="1" height="1" fill="#000000" />
<rect x="36" y="20" width="1" height="1" fill="#000000" />
<rect x="37" y="20" width="1" height="1" fill="#000000" />
<rect x="38" y="20" width="1" height="1" fill="#000000" />
<rect x="39" y="20" width="1" height="1" fill="#000000" />
<rect x="40" y="20" width="1" height="1" fill="#000000" />
<rect x="41" y="20" width="1" height="1" fill="#000000" />
<rect x="42" y="20" width="1" height="1" fill="#000000" />
<rect x="43" y="20" width="1" height="1" fill="#000000" />
<rect x="44" y="20" width="1" height="1" fill="#000000" />
<rect x="45" y="20" width="1" height="1" fill="#000000" />
<rect x="46" y="20" width="1" height="1" fill="#000000" />
<rect x="47" y="20" width="1" height="1" fill="#000000" />
<rect x="48" y="20" width="1" height="1" fill="#000000" />
<rect x="49" y="20" width="1" height="1" fill="#000000" />
<rect x="50" y="20" width="1" height="1" fill="#000000" />
<rect x="51" y="20" width="1" height="1" fill="#000000" />
<rect x="52" y="20" width="1" height="1" fill="#000000" />
<rect x="53" y="20" width="1" height="1" fill="#000000" />
<rect x="54" y="20" width="1" height="1" fill="#000000" />
<rect x="55" y="20" width="1" height="1" fill="#000000" />
<rect x="56" y="20" width="1" height="1" fill="#000000" />
<rect x="57" y="20" width="1" height="1" fill="#000000" />
<rect x="5" y="21" width="1" height="1" fill="#000000" />
<rect x="6" y="21" width="1" height="1" fill="#000000" />
<rect x="7" y="21" width="1" height="1" fill="#000000" />
<rect x="8" y="21" width="1" height="1" fill="#000000" />
<rect x="9" y="21" width="1" height="1" fill="#000000" />
<rect x="10" y="21" width="1" height="1" fill="#000000" />
<rect x="11" y="21" width="1" height="1" fill="#000000" />
<rect x="12" y="21" width="1" height="1" fill="#000000" />
<rect x="13" y="21" width="1" height="1" fill="#000000" />
<rect x="14" y="21" width="1" height="1" fill="#000000" />
<rect x="15" y="21" width="1" height="1" fill="#000000" />
<rect x="16" y="21" width="1" height="1" fill="#000000" />
<rect x="17" y="21" width="1" height="1" fill="#000000" />
<rect x="18" y="21" width="1" height="1" fill="#000000" />
<rect x="19" y="21" width="1" height="1" fill="#000000" />
<rect x="20" y="21" width="1" height="1" fill="#000000" />
<rect x="21" y="21" width="1" height="1" fill="#000000" />
<rect x="22" y="21" width="1" height="1" fill="#000000" />
<rect x="23" y="21" width="1" height="1" fill="#000000" />
<rect x="24" y="21" width="1" height="1" fill="#000000" />
<rect x="25" y="21" width="1" height="1" fill="#000000" />
<rect x="26" y="21" width="1" height="1" fill="#000000" />
<rect x="27" y="21" width="1" height="1" fill="#000000" />
<rect x="28" y="21" width="1" height="1" fill="#000000" />
<rect x="29" y="21" width="1" height="1" fill="#000000" />
<rect x="30" y="21" width="1" height="1" fill="#000000" />
<rect x="31" y="21" width="1" height="1" fill="#000000" />
<rect x="32" y="21" width="1" height="1" fill="#000000" />
<rect x="33" y="21" width="1" height="1" fill="#000000" />
<rect x="34" y="21" width="1" height="1" fill="#000000" />
<rect x="35" y="21" width="1" height="1" fill="#000000" />
<rect x="36" y="21" width="1" height="1" fill="#000000" />
<rect x="37" y="21" width="1" height="1" fill="#000000" />
<rect x="38" y="21" width="1" height="1" fill="#000000" />
<rect x="39" y="21" width="1" height="1" fill="#000000" />
<rect x="40" y="21" width="1" height="1" fill="#000000" />
<rect x="41" y="21" width="1" height="1" fill="#000000" />
<rect x="42" y="21" width="1" height="1" fill="#000000" />
<rect x="43" y="21" width="1" height="1" fill="#000000" />
<rect x="44" y="21" width="1" height="1" fill="#000000" />
<rect x="45" y="21" width="1" height="1" fill="#000000" />
<rect x="46" y="21" width="1" height="1" fill="#000000" />
<rect x="47" y="21" width="1" height="1" fill="#000000" />
<rect x="48" y="21" width="1" height="1" fill="#000000" />
<rect x="49" y="21" width="1" height="1" fill="#000000" />
<rect x="50" y="21" width="1" height="1" fill="#000000" />
<rect x="51" y="21" width="1" height="1" fill="#000000" />
<rect x="52" y="21" width="1" height="1" fill="#000000" />
<rect x="53" y="21" width="1" height="1" fill="#000000" />
<rect x="54" y="21" width="1" height="1" fill="#000000" />
<rect x="55" y="21" width="1" height="1" fill="#000000" />
<rect x="56" y="21" width="1" height="1" fill="#000000" />
<rect x="57" y="21" width="1" height="1" fill="#000000" />
<rect x="58" y="21" width="1" height="1" fill="#000000" />
<rect x="10" y="29" width="1" height="1" fill="#000000" />
<rect x="11" y="29" width="1" height="1" fill="#000000" />
<rect x="12" y="29" width="1" height="1" fill="#000000" />
<rect x="13" y="29" width="1" height="1" fill="#000000" />
<rect x="14" y="29" width="1" height="1" fill="#000000" />
<rect x="15" y="29" width="1" height="1" fill="#000000" />
<rect x="16" y="29" width="1" height="1" fill="#000000" />
<rect x="17" y="29" width="1" height="1" fill="#000000" />
<rect x="18" y="29" width="1" height="1" fill="#000000" />
<rect x="19" y="29" width="1" height="1" fill="#000000" />
<rect x="20" y="29" width="1" height="1" fill="#000000" />
<rect x="21" y="29" width="1" height="1" fill="#000000" />
<rect x="22" y="29" width="1" height="1" fill="#000000" />
<rect x="23" y="29" width="1" height="1" fill="#000000" />
<rect x="24" y="29" width="1" height="1" fill="#000000" />
<rect x="25" y="29" width="1" height="1" fill="#000000" />
<rect x="26" y="29" width="1" height="1" fill="#000000" />
<rect x="27" y="29" width="1" height="1" fill="#000000" />
<rect x="28" y="29" width="1" height="1" fill="#000000" />
<rect x="29" y="29" width="1" height="1" fill="#000000" />
<rect x="30" y="29" width="1" height="1" fill="#000000" />
<rect x="31" y="29" width="1" height="1" fill="#000000" />
<rect x="32" y="29" width="1" height="1" fill="#000000" />
<rect x="33" y="29" width="1" height="1" fill="#000000" />
<rect x="34" y="29" width="1" height="1" fill="#000000" />
<rect x="35" y="29" width="1" height="1" fill="#000000" />
<rect x="36" y="29" width="1" height="1" fill="#000000" />
<rect x="37" y="29" width="1" height="1" fill="#000000" />
<rect x="38" y="29" width="1" height="1" fill="#000000" />
<rect x="39" y="29" width="1" height="1" fill="#000000" />
<rect x="40" y="29" width="1" height="1" fill="#000000" />
<rect x="41" y="29" width="1" height="1" fill="#000000" />
<rect x="42" y="29" width="1" height="1" fill="#000000" />
<rect x="43" y="29" width="1" height="1" fill="#000000" />
<rect x="44" y="29" width="1" height="1" fill="#000000" />
<rect x="45" y="29" width="1" height="1" fill="#000000" />
<rect x="46" y="29" width="1" height="1" fill="#000000" />
<rect x="47" y="29" width="1" height="1" fill="#000000" />
<rect x="48" y="29" width="1" height="1" fill="#000000" />
<rect x="49" y="29" width="1" height="1" fill="#000000" />
<rect x="50" y="29" width="1" height="1" fill="#000000" />
<rect x="51" y="29" width="1" height="1" fill="#000000" />
<rect x="52" y="29" width="1" height="1" fill="#000000" />
<rect x="53" y="29" width="1" height="1" fill="#000000" />
<rect x="9" y="30" width="1" height="1" fill="#000000" />
<rect x="54" y="30" width="1" height="1" fill="#000000" />
<rect x="8" y="31" width="1" height="1" fill="#000000" />
<rect x="55" y="31" width="1" height="1" fill="#000000" />
<rect x="7" y="32" width="1" height="1" fill="#000000" />
<rect x="56" y="32" width="1" height="1" fill="#000000" />
<rect x="6" y="33" width="1" height="1" fill="#000000" />
<rect x="7" y="33" width="1" height="1" fill="#000000" />
<rect x="8" y="33" width="1" height="1" fill="#000000" />
<rect x="9" y="33" width="1" height="1" fill="#000000" />
<rect x="10" y="33" width="1" height="1" fill="#000000" />
<rect x="11" y="33" width="1" height="1" fill="#000000" />
<rect x="12" y="33" width="1" height="1" fill="#000000" />
<rect x="13" y="33" width="1" height="1" fill="#000000" />
<rect x="14" y="33" width="1" height="1" fill="#000000" />
<rect x="15" y="33" width="1" height="1" fill="#000000" />
<rect x="16" y="33" width="1" height="1" fill="#000000" />
<rect x="17" y="33" width="1" height="1" fill="#000000" />
<rect x="18" y="33" width="1" height="1" fill="#000000" />
<rect x="19" y="33" width="1" height="1" fill="#000000" />
<rect x="20" y="33" width="1" height="1" fill="#000000" />
<rect x="21" y="33" width="1" height="1" fill="#000000" />
<rect x="22" y="33" width="1" height="1" fill="#000000" />
<rect x="23" y="33" width="1" height="1" fill="#000000" />
<rect x="24" y="33" width="1" height="1" fill="#000000" />
<rect x="25" y="33" width="1" height="1" fill="#000000" />
<rect x="26" y="33" width="1" height="1" fill="#000000" />
<rect x="27" y="33" width="1" height="1" fill="#000000" />
<rect x="28" y="33" width="1" height="1" fill="#000000" />
<rect x="29" y="33" width="1" height="1" fill="#000000" />
<rect x="30" y="33" width="1" height="1" fill="#000000" />
<rect x="31" y="33" width="1" height="1" fill="#000000" />
<rect x="32" y="33" width="1" height="1" fill="#000000" />
<rect x="33" y="33" width="1" height="1" fill="#000000" />
<rect x="34" y="33" width="1" height="1" fill="#000000" />
<rect x="35" y="33" width="1" height="1" fill="#000000" />
<rect x="36" y="33" width="1" height="1" fill="#000000" />
<rect x="37" y="33" width="1" height="1" fill="#000000" />
<rect x="38" y="33" width="1" height="1" fill="#000000" />
<rect x="39" y="33" width="1" height="1" fill="#000000" />
<rect x="40" y="33" width="1" height="1" fill="#000000" />
<rect x="41" y="33" width="1" height="1" fill="#000000" />
<rect x="42" y="33" width="1" height="1" fill="#000000" />
<rect x="43" y="33" width="1" height="1" fill="#000000" />
<rect x="44" y="33" width="1" height="1" fill="#000000" />
<rect x="45" y="33" width="1" height="1" fill="#000000" />
<rect x="46" y="33" width="1" height="1" fill="#000000" />
<rect x="47" y="33" width="1" height="1" fill="#000000" />
<rect x="48" y="33" width="1" height="1" fill="#000000" />
<rect x="49" y="33" width="1" height="1" fill="#000000" />
<rect x="50" y="33" width="1" height="1" fill="#000000" />
<rect x="51" y="33" width="1" height="1" fill="#000000" />
<rect x="52" y="33" width="1" height="1" fill="#000000" />
<rect x="53" y="33" width="1" height="1" fill="#000000" />
<rect x="54" y="33" width="1" height="1" fill="#000000" />
<rect x="55" y="33" width="1" height="1" fill="#000000" />
<rect x="56" y="33" width="1" height="1" fill="#000000" />
<rect x="57" y="33" width="1" height="1" fill="#000000" />
<rect x="5" y="34" width="1" height="1" fill="#000000" />
<rect x="6" y="34" width="1" height="1" fill="#000000" />
<rect x="7" y="34" width="1" height="1" fill="#000000" />
<rect x="8" y="34" width="1" height="1" fill="#000000" />
<rect x="9" y="34" width="1" height="1" fill="#000000" />
<rect x="10" y="34" width="1" height="1" fill="#000000" />
<rect x="11" y="34" width="1" height="1" fill="#000000" />
<rect x="12" y="34" width="1" height="1" fill="#000000" />
<rect x="13" y="34" width="1" height="1" fill="#000000" />
<rect x="14" y="34" width="1" height="1" fill="#000000" />
<rect x="15" y="34" width="1" height="1" fill="#000000" />
<rect x="16" y="34" width="1" height="1" fill="#000000" />
<rect x="17" y="34" width="1" height="1" fill="#000000" />
<rect x="18" y="34" width="1" height="1" fill="#000000" />
<rect x="19" y="34" width="1" height="1" fill="#000000" />
<rect x="20" y="34" width="1" height="1" fill="#000000" />
<rect x="21" y="34" width="1" height="1" fill="#000000" />
<rect x="22" y="34" width="1" height="1" fill="#000000" />
<rect x="23" y="34" width="1" height="1" fill="#000000" />
<rect x="24" y="34" width="1" height="1" fill="#000000" />
<rect x="25" y="34" width="1" height="1" fill="#000000" />
<rect x="26" y="34" width="1" height="1" fill="#000000" />
<rect x="27" y="34" width="1" height="1" fill="#000000" />
<rect x="28" y="34" width="1" height="1" fill="#000000" />
<rect x="29" y="34" width="1" height="1" fill="#000000" />
<rect x="30" y="34" width="1" height="1" fill="#000000" />
<rect x="31" y="34" width="1" height="1" fill="#000000" />
<rect x="32" y="34" width="1" height="1" fill="#000000" />
<rect x="33" y="34" width="1" height="1" fill="#000000" />
<rect x="34" y="34" width="1" height="1" fill="#000000" />
<rect x="35" y="34" width="1" height="1" fill="#000000" />
<rect x="36" y="34" width="1" height="1" fill="#000000" />
<rect x="37" y="34" width="1" height="1" fill="#000000" />
<rect x="38" y="34" width="1" height="1" fill="#000000" />
<rect x="39" y="34" width="1" height="1" fill="#000000" />
<rect x="40" y="34" width="1" height="1" fill="#000000" />
<rect x="41" y="34" width="1" height="1" fill="#000000" />
<rect x="42" y="34" width="1" height="1" fill="#000000" />
<rect x="43" y="34" width="1" height="1" fill="#000000" />
<rect x="44" y="34" width="1" height="1" fill="#000000" />
<rect x="45" y="34" width="1" height="1" fill="#000000" />
<rect x="46" y="34" width="1" height="1" fill="#000000" />
<rect x="47" y="34" width="1" height="1" fill="#000000" />
<rect x="48" y="34" width="1" height="1" fill="#000000" />
<rect x="49" y="34" width="1" height="1" fill="#000000" />
<rect x="50" y="34" width="1" height="1" fill="#000000" />
<rect x="51" y="34" width="1" height="1" fill="#000000" />
<rect x="52" y="34" width="1" height="1" fill="#000000" />
<rect x="53" y="34" width="1" height="1" fill="#000000" />
<rect x="54" y="34" width="1" height="1" fill="#000000" />
<rect x="55" y="34" width="1" height="1" fill="#000000" />
<rect x="56" y="34" width="1" height="1" fill="#000000" />
<rect x="57" y="34" width="1" height="1" fill="#000000" />
<rect x="58" y="34" width="1" height="1" fill="#000000" />
<rect x="10" y="43" width="1" height="1" fill="#000000" />
<rect x="11" y="43" width="1" height="1" fill="#000000" />
<rect x="12" y="43" width="1" height="1" fill="#000000" />
<rect x="13" y="43" width="1" height="1" fill="#000000" />
<rect x="14" y="43" width="1" height="1" fill="#000000" />
<rect x="15" y="43" width="1" height="1" fill="#000000" />
<rect x="16" y="43" width="1" height="1" fill="#000000" />
<rect x="17" y="43" width="1" height="1" fill="#000000" />
<rect x="18" y="43" width="1" height="1" fill="#000000" />
<rect x="19" y="43" width="1" height="1" fill="#000000" />
<rect x="20" y="43" width="1" height="1" fill="#000000" />
<rect x="21" y="43" width="1" height="1" fill="#000000" />
<rect x="22" y="43" width="1" height="1" fill="#000000" />
<rect x="23" y="43" width="1" height="1" fill="#000000" />
<rect x="24" y="43" width="1" height="1" fill="#000000" />
<rect x="25" y="43" width="1" height="1" fill="#000000" />
<rect x="26" y="43" width="1" height="1" fill="#000000" />
<rect x="27" y="43" width="1" height="1" fill="#000000" />
<rect x="28" y="43" width="1" height="1" fill="#000000" />
<rect x="29" y="43" width="1" height="1" fill="#000000" />
<rect x="30" y="43" width="1" height="1" fill="#000000" />
<rect x="31" y="43" width="1" height="1" fill="#000000" />
<rect x="32" y="43" width="1" height="1" fill="#000000" />
<rect x="33" y="43" width="1" height="1" fill="#000000" />
<rect x="34" y="43" width="1" height="1" fill="#000000" />
<rect x="35" y="43" width="1" height="1" fill="#000000" />
<rect x="36" y="43" width="1" height="1" fill="#000000" />
<rect x="37" y="43" width="1" height="1" fill="#000000" />
<rect x="38" y="43" width="1" height="1" fill="#000000" />
<rect x="39" y="43" width="1" height="1" fill="#000000" />
<rect x="40" y="43" width="1" height="1" fill="#000000" />
<rect x="41" y="43" width="1" height="1" fill="#000000" />
<rect x="42" y="43" width="1" height="1" fill="#000000" />
<rect x="43" y="43" width="1" height="1" fill="#000000" />
<rect x="44" y="43" width="1" height="1" fill="#000000" />
<rect x="45" y="43" width="1" height="1" fill="#000000" />
<rect x="46" y="43" width="1" height="1" fill="#000000" />
<rect x="47" y="43" width="1" height="1" fill="#000000" />
<rect x="48" y="43" width="1" height="1" fill="#000000" />
<rect x="49" y="43" width="1" height="1" fill="#000000" />
<rect x="50" y="43" width="1" height="1" fill="#000000" />
<rect x="51" y="43" width="1" height="1" fill="#000000" />
<rect x="52" y="43" width="1" height="1" fill="#000000" />
<rect x="53" y="43" width="1" height="1" fill="#000000" />
<rect x="9" y="44" width="1" height="1" fill="#000000" />
<rect x="54" y="44" width="1" height="1" fill="#000000" />
<rect x="8" y="45" width="1" height="1" fill="#000000" />
<rect x="55" y="45" width="1" height="1" fill="#000000" />
<rect x="7" y="46" width="1" height="1" fill="#000000" />
<rect x="56" y="46" width="1" height="1" fill="#000000" />
<rect x="6" y="47" width="1" height="1" fill="#000000" />
<rect x="7" y="47" width="1" height="1" fill="#000000" />
<rect x="8" y="47" width="1" height="1" fill="#000000" />
<rect x="9" y="47" width="1" height="1" fill="#000000" />
<rect x="10" y="47" width="1" height="1" fill="#000000" />
<rect x="11" y="47" width="1" height="1" fill="#000000" />
<rect x="12" y="47" width="1" height="1" fill="#000000" />
<rect x="13" y="47" width="1" height="1" fill="#000000" />
<rect x="14" y="47" width="1" height="1" fill="#000000" />
<rect x="15" y="47" width="1" height="1" fill="#000000" />
<rect x="16" y="47" width="1" height="1" fill="#000000" />
<rect x="17" y="47" width="1" height="1" fill="#000000" />
<rect x="18" y="47" width="1" height="1" fill="#000000" />
<rect x="19" y="47" width="1" height="1" fill="#000000" />
<rect x="20" y="47" width="1" height="1" fill="#000000" />
<rect x="21" y="47" width="1" height="1" fill="#000000" />
<rect x="22" y="47" width="1" height="1" fill="#000000" />
<rect x="23" y="47" width="1" height="1" fill="#000000" />
<rect x="24" y="47" width="1" height="1" fill="#000000" />
<rect x="25" y="47" width="1" height="1" fill="#000000" />
<rect x="26" y="47" width="1" height="1" fill="#000000" />
<rect x="27" y="47" width="1" height="1" fill="#000000" />
<rect x="28" y="47" width="1" height="1" fill="#000000" />
<rect x="29" y="47" width="1" height="1" fill="#000000" />
<rect x="30" y="47" width="1" height="1" fill="#000000" />
<rect x="31" y="47" width="1" height="1" fill="#000000" />
<rect x="32" y="47" width="1" height="1" fill="#000000" />
<rect x="33" y="47" width="1" height="1" fill="#000000" />
<rect x="34" y="47" width="1" height="1" fill="#000000" />
<rect x="35" y="47" width="1" height="1" fill="#000000" />
<rect x="36" y="47" width="1" height="1" fill="#000000" />
<rect x="37" y="47" width="1" height="1" fill="#000000" />
<rect x="38" y="47" width="1" height="1" fill="#000000" />
<rect x="39" y="47" width="1" height="1" fill="#000000" />
<rect x="40" y="47" width="1" height="1" fill="#000000" />
<rect x="41" y="47" width="1" height="1" fill="#000000" />
<rect x="42" y="47" width="1" height="1" fill="#000000" />
<rect x="43" y="47" width="1" height="1" fill="#000000" />
<rect x="44" y="47" width="1" height="1" fill="#000000" />
<rect x="45" y="47" width="1" height="1" fill="#000000" />
<rect x="46" y="47" width="1" height="1" fill="#000000" />
<rect x="47" y="47" width="1" height="1" fill="#000000" />
<rect x="48" y="47" width="1" height="1" fill="#000000" />
<rect x="49" y="47" width="1" height="1" fill="#000000" />
<rect x="50" y="47" width="1" height="1" fill="#000000" />
<rect x="51" y="47" width="1" height="1" fill="#000000" />
<rect x="52" y="47" width="1" height="1" fill="#000000" />
<rect x="53" y="47" width="1" height="1" fill="#000000" />
<rect x="54" y="47" width="1" height="1" fill="#000000" />
<rect x="55" y="47" width="1" height="1" fill="#000000" />
<rect x="56" y="47" width="1" height="1" fill="#000000" />
<rect x="57" y="47" width="1" height="1" fill="#000000" />
<rect x="5" y="48" width="1" height="1" fill="#000000" />
<rect x="6" y="48" width="1" height="1" fill="#000000" />
<rect x="7" y="48" width="1" height="1" fill="#000000" />
<rect x="8" y="48" width="1" height="1" fill="#000000" />
<rect x="9" y="48" width="1" height="1" fill="#000000" />
<rect x="10" y="48" width="1" height="1" fill="#000000" />
<rect x="11" y="48" width="1" height="1" fill="#000000" />
<rect x="12" y="48" width="1" height="1" fill="#000000" />
<rect x="13" y="48" width="1" height="1" fill="#000000" />
<rect x="14" y="48" width="1" height="1" fill="#000000" />
<rect x="15" y="48" width="1" height="1" fill="#000000" />
<rect x="16" y="48" width="1" height="1" fill="#000000" />
<rect x="17" y="48" width="1" height="1" fill="#000000" />
<rect x="18" y="48" width="1" height="1" fill="#000000" />
<rect x="19" y="48" width="1" height="1" fill="#000000" />
<rect x="20" y="48" width="1" height="1" fill="#000000" />
<rect x="21" y="48" width="1" height="1" fill="#000000" />
<rect x="22" y="48" width="1" height="1" fill="#000000" />
<rect x="23" y="48" width="1" height="1" fill="#000000" />
<rect x="24" y="48" width="1" height="1" fill="#000000" />
<rect x="25" y="48" width="1" height="1" fill="#000000" />
<rect x="26" y="48" width="1" height="1" fill="#000000" />
<rect x="27" y="48" width="1" height="1" fill="#000000" />
<rect x="28" y="48" width="1" height="1" fill="#000000" />
<rect x="29" y="48" width="1" height="1" fill="#000000" />
<rect x="30" y="48" width="1" height="1" fill="#000000" />
<rect x="31" y="48" width="1" height="1" fill="#000000" />
<rect x="32" y="48" width="1" height="1" fill="#000000" />
<rect x="33" y="48" width="1" height="1" fill="#000000" />
<rect x="34" y="48" width="1" height="1" fill="#000000" />
<rect x="35" y="48" width="1" height="1" fill="#000000" />
<rect x="36" y="48" width="1" height="1" fill="#000000" />
<rect x="37" y="48" width="1" height="1" fill="#000000" />
<rect x="38" y="48" width="1" height="1" fill="#000000" />
<rect x="39" y="48" width="1" height="1" fill="#000000" />
<rect x="40" y="48" width="1" height="1" fill="#000000" />
<rect x="41" y="48" width="1" height="1" fill="#000000" />
<rect x="42" y="48" width="1" height="1" fill="#000000" />
<rect x="43" y="48" width="1" height="1" fill="#000000" />
<rect x="44" y="48" width="1" height="1" fill="#000000" />
<rect x="45" y="48" width="1" height="1" fill="#000000" />
<rect x="46" y="48" width="1" height="1" fill="#000000" />
<rect x="47" y="48" width="1" height="1" fill="#000000" />
<rect x="48" y="48" width="1" height="1" fill="#000000" />
<rect x="49" y="48" width="1" height="1" fill="#000000" />
<rect x="50" y="48" width="1" height="1" fill="#000000" />
<rect x="51" y="48" width="1" height="1" fill="#000000" />
<rect x="52" y="48" width="1" height="1" fill="#000000" />
<rect x="53" y="48" width="1" height="1" fill="#000000" />
<rect x="54" y="48" width="1" height="1" fill="#000000" />
<rect x="55" y="48" width="1" height="1" fill="#000000" />
<rect x="56" y="48" width="1" height="1" fill="#000000" />
<rect x="57" y="48" width="1" height="1" fill="#000000" />
<rect x="58" y="48" width="1" height="1" fill="#000000" />
</svg>